<svg xmlns="http://www.w3.org/2000/svg" xmlns:xlink="http://www.w3.org/1999/xlink" version="1.1" id="Layer_1" x="0px" y="0px" width="100%" viewBox="0 0 1024 848" enable-background="new 0 0 1024 848" xml:space="preserve">
<path fill="#ffffff" opacity="1.000000" stroke="none" d=" M559.970032,618.234558   C536.811523,618.283875 514.148132,618.313354 491.484924,618.389954   C483.739227,618.416138 483.176025,619.007568 483.178192,626.580933   C483.183838,646.244995 483.218292,665.908997 483.218231,685.573059   C483.218231,691.704651 482.839996,692.105103 476.715637,692.115906   C456.551666,692.151428 436.387604,692.168091 416.223633,692.140564   C409.665344,692.131592 409.069946,691.527283 409.100891,684.986328   C409.258545,651.667297 409.520020,618.348694 409.598877,585.029541   C409.626465,573.372070 409.190765,561.714172 409.054626,550.055481   C408.975281,543.260742 409.325867,542.935791 416.020905,542.932861   C463.347565,542.912292 510.674347,542.967773 558.000916,542.890076   C607.437988,542.808960 648.183105,508.876648 657.308289,460.283844   C659.599976,448.080231 658.886475,435.727081 658.898132,423.416473   C658.917480,402.919434 658.794556,382.421387 658.981873,361.926056   C659.018799,357.888702 657.515259,355.480011 654.284546,353.369141   C615.510803,328.035034 577.921936,300.971893 539.750488,274.757965   C530.825806,268.629028 521.735413,262.728149 513.009094,256.329773   C509.174774,253.518356 506.333862,253.426926 502.404205,256.169647   C481.643585,270.659668 460.700195,284.887726 439.829865,299.220703   C413.053101,317.609985 386.319244,336.062317 359.468353,354.342682   C356.343384,356.470215 355.145599,358.782074 355.148529,362.532227   C355.232086,470.017914 355.211365,577.503662 355.223236,684.989380   C355.224030,692.019592 355.219879,692.129700 348.462067,692.132874   C328.298035,692.142395 308.132843,691.992249 287.970856,692.187988   C283.072418,692.235535 281.401825,690.750122 281.219269,685.694092   C280.731537,672.185181 281.993622,658.716553 281.604309,645.221619   C280.777863,616.577026 282.171326,587.920898 281.488861,559.286499   C280.806213,530.644409 281.219086,502.000702 281.325409,473.375488   C281.502960,425.560669 280.462097,377.752808 281.019043,329.941559   C281.057770,326.617615 281.181183,323.293518 281.156311,319.970306   C281.133057,316.865295 283.606262,315.806458 285.599060,314.423950   C306.951447,299.610565 328.320801,284.821594 349.703888,270.052521   C396.171967,237.957413 442.649902,205.876480 489.126617,173.793747   C493.650574,170.670868 498.344177,167.769714 502.679901,164.405792   C506.093170,161.757568 508.777985,161.665588 512.407593,164.279694   C543.094116,186.380875 574.463623,207.501785 605.635498,228.907211   C639.827637,252.386566 673.938110,275.984833 708.073181,299.547180   C715.339111,304.562622 722.509338,309.718262 729.822266,314.663422   C732.698486,316.608368 734.015381,318.863586 734.006897,322.497650   C733.914795,361.991638 734.085449,401.486206 733.987915,440.980164   C733.887207,481.720551 721.266174,518.376465 696.253601,550.398865   C667.241699,587.541565 628.897095,609.156433 582.332825,616.223328   C575.086426,617.323059 567.812561,618.196655 559.970032,618.234558  z"/>
<path fill="#ffffff" opacity="1.000000" stroke="none" d=" M523.041382,383.800842   C538.002319,383.832397 552.471863,383.969849 566.938843,383.835724   C571.606689,383.792480 573.369385,385.401367 573.285095,390.238831   C573.035889,404.536835 573.080811,418.844238 573.297668,433.143585   C573.364441,437.547272 571.626526,439.057587 567.462341,439.036285   C550.998596,438.951965 534.533813,438.950317 518.070129,439.039062   C513.917969,439.061432 512.624023,437.164001 512.659363,433.221588   C512.787720,418.920258 512.886658,404.613098 512.590149,390.316559   C512.486816,385.332306 513.955627,383.095795 519.059448,383.783173   C520.202698,383.937134 521.384766,383.802917 523.041382,383.800842  z"/>
<path fill="#ffffff" opacity="1.000000" stroke="none" d=" M553.998169,501.938599   C541.850281,501.946594 530.202567,501.860870 518.554382,502.006134   C514.285339,502.059387 512.677368,500.411102 512.725586,496.095642   C512.889099,481.453247 512.845093,466.807098 512.714539,452.163849   C512.680664,448.357208 514.011780,446.786255 517.940125,446.818237   C534.413879,446.952484 550.889709,446.955444 567.363770,446.853119   C571.549072,446.827148 573.323853,448.272858 573.266846,452.682404   C573.077759,467.324341 573.106934,481.970917 573.242065,496.613983   C573.277832,500.488617 571.803467,502.066772 567.976074,501.948486   C563.487488,501.809784 558.990906,501.929047 553.998169,501.938599  z"/>
<path fill="#ffffff" opacity="1.000000" stroke="none" d=" M443.431641,450.781494   C443.236053,447.262390 445.368408,446.877106 447.684845,446.880005   C464.662109,446.901123 481.639343,446.967346 498.616608,446.987762   C501.973541,446.991791 503.316528,448.556610 503.295258,451.915375   C503.199249,467.061462 503.187469,482.208618 503.261719,497.354828   C503.277679,500.609711 501.788300,501.854919 498.754913,501.862946   C481.777985,501.907806 464.800873,501.939270 447.824341,502.050323   C443.903992,502.075958 443.339874,499.934875 443.280914,496.587463   C443.014313,481.450592 442.917786,466.318817 443.431641,450.781494  z"/>
<path fill="#ffffff" opacity="1.000000" stroke="none" d=" M443.370636,435.602966   C443.222107,420.903046 443.099213,406.611206 443.086761,392.319305   C443.079498,384.008728 443.303711,383.855072 451.363098,383.836945   C466.665253,383.802460 481.968781,383.881531 497.268646,383.678955   C501.729553,383.619873 503.461487,385.034576 503.379761,389.703033   C503.129425,404.003082 503.134277,418.311951 503.341309,432.613037   C503.406097,437.088654 501.859955,439.037415 497.383820,439.024048   C481.250580,438.975861 465.117004,439.060883 448.983643,439.030609   C446.686218,439.026306 444.147125,439.104584 443.370636,435.602966  z"/>
</svg>